# xmcd CD database file
# Generated: Die Mär 4 23:59:12 2003 by KSCD
# 
# Track frame offsets:
#       150
#       22120
#       43352
#       63567
#       91570
#       113094
#       133016
#       155279
#       176664
#       197171
#       221913
#       241988
#       263234
#
# Disc length: 3783 seconds
#
# Revision: 9
# Processed by: cddbd v1.4PL0 Copyright (c) Steve Scherf et al.
# Submitted via: Kscd 1.3.3
#
DISCID=bc0ec50d
DTITLE=Justin Timberlake - Justified
DYEAR=1900
DGENRE=
TTITLE0=Senorita
TTITLE1=Like I Love You [featuring Clipse]
TTITLE2=[Uh Oh] What You Got
TTITLE3=Take It From Here
TTITLE4=Cry Me A River
TTITLE5=Rock Your Body
TTITLE6=Nothin' Else
TTITLE7=Last Night
TTITLE8=Still On My Brain
TTITLE9=[And She Said] Take Me Now [featuring Janet Jackson]
TTITLE10=Right For Me
TTITLE11=Let's Take A Ride
TTITLE12=Never Again
EXTD=
EXTT0=
EXTT1=
EXTT2=
EXTT3=
EXTT4=
EXTT5=
EXTT6=
EXTT7=
EXTT8=
EXTT9=
EXTT10=
EXTT11=
EXTT12=
PLAYORDER=
